<svg version="1.1" xmlns="http://www.w3.org/2000/svg" xmlns:xlink="http://www.w3.org/1999/xlink" width="300" height="72" viewBox="12 14 300 72">
	<defs>
		<path id="rtv-5" d="M48.446,60.064c-0.574,0.31-0.776,1.031-0.475,1.6c0.314,0.577,1.03,0.79,1.601,0.481
			c0.582-0.302,0.792-1.024,0.481-1.603c-0.209-0.395-0.619-0.614-1.043-0.614C48.819,59.928,48.626,59.972,48.446,60.064
			 M51.869,59.857c-0.648,0.345-0.873,1.147-0.521,1.8c0.337,0.64,1.138,0.894,1.786,0.53c0.65-0.339,0.881-1.149,0.537-1.791
			c-0.242-0.444-0.698-0.695-1.171-0.695C52.287,59.701,52.071,59.75,51.869,59.857 M45.18,59.199
			c-0.513,0.277-0.694,0.896-0.417,1.396c0.261,0.503,0.892,0.694,1.392,0.423c0.502-0.28,0.69-0.911,0.42-1.406
			c-0.191-0.341-0.546-0.538-0.91-0.538C45.499,59.073,45.334,59.112,45.18,59.199 M55.079,58.545
			c-0.728,0.39-1.008,1.301-0.602,2.034c0.396,0.729,1.31,0.996,2.042,0.61c0.727-0.402,0.997-1.317,0.606-2.031
			c-0.273-0.507-0.79-0.801-1.327-0.801C55.555,58.358,55.309,58.418,55.079,58.545 M42.372,57.344
			c-0.429,0.226-0.589,0.77-0.359,1.194c0.227,0.434,0.763,0.592,1.195,0.353c0.427-0.222,0.59-0.759,0.359-1.191
			c-0.157-0.293-0.462-0.458-0.778-0.458C42.648,57.242,42.505,57.274,42.372,57.344 M57.95,56.58
			c-0.648,0.35-0.883,1.155-0.536,1.797c0.341,0.646,1.148,0.886,1.798,0.532c0.645-0.336,0.882-1.154,0.533-1.793
			c-0.244-0.442-0.7-0.698-1.17-0.698C58.364,56.417,58.149,56.469,57.95,56.58 M40.324,54.699
			c-0.363,0.188-0.492,0.636-0.298,1.005c0.193,0.353,0.634,0.488,1.003,0.3c0.354-0.203,0.489-0.649,0.293-1.008
			c-0.136-0.244-0.392-0.387-0.654-0.387C40.551,54.609,40.433,54.638,40.324,54.699 M60.003,53.83
			c-0.576,0.304-0.786,1.035-0.482,1.606c0.316,0.566,1.029,0.781,1.592,0.476c0.586-0.316,0.789-1.025,0.491-1.604
			c-0.216-0.394-0.622-0.62-1.042-0.62C60.373,53.688,60.182,53.733,60.003,53.83 M39.087,51.271
			c-0.425,0.236-0.586,0.777-0.353,1.204c0.235,0.436,0.774,0.586,1.196,0.35c0.43-0.222,0.604-0.77,0.361-1.195
			c-0.166-0.294-0.468-0.463-0.784-0.463C39.366,51.167,39.222,51.201,39.087,51.271 M61.075,50.617
			c-0.505,0.276-0.682,0.896-0.424,1.406c0.267,0.492,0.912,0.676,1.407,0.41c0.502-0.272,0.681-0.9,0.41-1.397
			c-0.185-0.348-0.536-0.542-0.902-0.542C61.4,50.494,61.231,50.534,61.075,50.617 M38.937,47.656
			c-0.495,0.267-0.679,0.894-0.413,1.391c0.277,0.507,0.899,0.691,1.402,0.422c0.497-0.272,0.688-0.908,0.418-1.401
			c-0.187-0.345-0.539-0.541-0.905-0.541C39.27,47.527,39.098,47.568,38.937,47.656 M61.069,47.253
			c-0.437,0.228-0.601,0.774-0.363,1.203c0.225,0.428,0.771,0.587,1.186,0.367c0.434-0.251,0.601-0.79,0.374-1.214
			c-0.163-0.296-0.469-0.462-0.781-0.462C61.343,47.147,61.2,47.181,61.069,47.253 M39.875,44.176
			c-0.574,0.31-0.786,1.028-0.486,1.599c0.316,0.567,1.03,0.787,1.6,0.475c0.575-0.305,0.794-1.024,0.483-1.599
			c-0.219-0.392-0.625-0.615-1.043-0.615C40.242,44.036,40.052,44.081,39.875,44.176 M59.962,44.081
			c-0.342,0.2-0.486,0.658-0.287,1.009c0.191,0.359,0.64,0.488,0.988,0.297c0.363-0.192,0.497-0.633,0.302-0.992
			C60.828,44.141,60.572,44,60.305,44C60.189,44,60.073,44.026,59.962,44.081 M57.787,41.181c-0.44,0.241-0.596,0.775-0.368,1.202
			c0.231,0.427,0.766,0.585,1.207,0.365c0.426-0.244,0.593-0.778,0.359-1.208c-0.163-0.296-0.468-0.467-0.781-0.467
			C58.063,41.073,57.92,41.108,57.787,41.181 M41.789,41.167c-0.653,0.357-0.895,1.148-0.541,1.807
			c0.35,0.638,1.144,0.88,1.788,0.533c0.657-0.347,0.895-1.158,0.549-1.795c-0.238-0.446-0.7-0.705-1.175-0.705
			C42.199,41.006,41.986,41.057,41.789,41.167 M54.842,39.063c-0.504,0.279-0.696,0.911-0.426,1.408
			c0.271,0.502,0.909,0.685,1.395,0.412c0.512-0.272,0.696-0.897,0.421-1.395c-0.183-0.348-0.544-0.545-0.912-0.545
			C55.157,38.943,54.993,38.982,54.842,39.063 M44.473,38.896c-0.727,0.394-1.004,1.308-0.603,2.032
			c0.395,0.73,1.303,1.013,2.041,0.616c0.731-0.395,0.996-1.308,0.606-2.033c-0.27-0.508-0.789-0.796-1.327-0.796
			C44.947,38.715,44.701,38.773,44.473,38.896 M51.421,37.948c-0.577,0.305-0.78,1.017-0.476,1.594
			c0.302,0.57,1.016,0.785,1.586,0.472c0.584-0.312,0.789-1.022,0.485-1.597c-0.208-0.391-0.611-0.617-1.029-0.617
			C51.795,37.8,51.601,37.847,51.421,37.948 M47.856,37.892c-0.644,0.346-0.873,1.155-0.535,1.793
			c0.344,0.654,1.158,0.886,1.802,0.545c0.642-0.353,0.878-1.156,0.534-1.804c-0.235-0.442-0.695-0.696-1.169-0.696
			C48.274,37.73,48.056,37.782,47.856,37.892"/>
	</defs>
	<clipPath id="rtv-6">
		<use xlink:href="#rtv-5" overflow="visible"/>
	</clipPath>
	
		<linearGradient id="rtv-7" gradientUnits="userSpaceOnUse" x1="-21.769" y1="122.9761" x2="-20.7687" y2="122.9761" gradientTransform="matrix(-20.9396 11.3037 11.3037 20.9396 -1784.9202 -2284.5583)">
		<stop offset="0" style="stop-color:#F89C1C"/>
		<stop offset="0.0773" style="stop-color:#F68D1E"/>
		<stop offset="0.1994" style="stop-color:#F47C20"/>
		<stop offset="0.3333" style="stop-color:#F27221"/>
		<stop offset="0.5" style="stop-color:#F26F21"/>
		<stop offset="0.6667" style="stop-color:#F27221"/>
		<stop offset="0.8006" style="stop-color:#F47C20"/>
		<stop offset="0.9227" style="stop-color:#F68D1E"/>
		<stop offset="1" style="stop-color:#F89C1C"/>
	</linearGradient>
	<polygon clip-path="url(#rtv-6)" fill="url(#rtv-7)" points="73.115,56.95 43.782,72.783 27.882,43.331 57.215,27.498 	"/>
	<defs>
		<path id="rtv-4" d="M49.312,64.89c-0.26,0.886,0.253,1.815,1.145,2.081c0.895,0.271,1.834-0.244,2.089-1.132
			c0.258-0.897-0.243-1.834-1.138-2.094c-0.16-0.047-0.321-0.069-0.479-0.069C50.198,63.676,49.529,64.153,49.312,64.89
			 M54.197,64.051c-0.231,0.797,0.229,1.627,1.018,1.86c0.802,0.233,1.628-0.219,1.863-1.018c0.232-0.786-0.216-1.62-1.015-1.854
			c-0.142-0.043-0.286-0.064-0.428-0.064C54.987,62.976,54.386,63.403,54.197,64.051 M44.321,64.193
			c-0.296,1.037,0.279,2.105,1.314,2.41c1.027,0.296,2.109-0.295,2.402-1.311c0.3-1.03-0.28-2.108-1.315-2.411
			c-0.182-0.052-0.365-0.077-0.545-0.077C45.337,62.804,44.565,63.349,44.321,64.193 M40.235,62.225
			c-0.261,0.882,0.241,1.82,1.138,2.084c0.898,0.259,1.83-0.253,2.095-1.141c0.258-0.887-0.251-1.832-1.149-2.091
			c-0.159-0.047-0.319-0.069-0.476-0.069C41.115,61.008,40.45,61.484,40.235,62.225 M58.708,61.843
			c-0.179,0.621,0.184,1.279,0.805,1.465c0.622,0.186,1.277-0.176,1.458-0.794c0.19-0.631-0.169-1.286-0.791-1.468
			c-0.113-0.034-0.226-0.05-0.338-0.05C59.333,60.997,58.863,61.334,58.708,61.843 M36.93,58.981
			c-0.235,0.791,0.215,1.621,1.012,1.858c0.803,0.238,1.628-0.219,1.867-1.011c0.232-0.793-0.229-1.632-1.022-1.869
			c-0.14-0.041-0.281-0.061-0.42-0.061C37.72,57.899,37.128,58.327,36.93,58.981 M62.222,58.426
			c-0.147,0.51,0.143,1.042,0.641,1.186c0.514,0.149,1.046-0.142,1.193-0.646c0.146-0.501-0.142-1.038-0.647-1.189
			c-0.088-0.024-0.178-0.037-0.266-0.037C62.729,57.74,62.346,58.01,62.222,58.426 M34.946,54.866
			c-0.175,0.624,0.163,1.282,0.798,1.466c0.619,0.187,1.277-0.178,1.46-0.806c0.185-0.624-0.175-1.28-0.795-1.452
			c-0.116-0.035-0.232-0.052-0.346-0.052C35.552,54.022,35.089,54.353,34.946,54.866 M64.502,54.168
			c-0.105,0.376,0.106,0.776,0.479,0.884c0.384,0.113,0.775-0.102,0.885-0.486c0.115-0.374-0.101-0.773-0.482-0.884
			c-0.064-0.019-0.129-0.028-0.194-0.028C64.883,53.654,64.593,53.856,64.502,54.168 M34.264,50.217
			c-0.153,0.503,0.147,1.029,0.651,1.18c0.502,0.151,1.033-0.133,1.185-0.643c0.15-0.502-0.137-1.033-0.645-1.187
			c-0.089-0.026-0.178-0.039-0.265-0.039C34.776,49.528,34.394,49.803,34.264,50.217 M64.889,49.348
			c-0.153,0.5,0.135,1.039,0.648,1.184c0.507,0.152,1.034-0.141,1.185-0.648c0.147-0.499-0.137-1.032-0.646-1.184
			c-0.089-0.025-0.178-0.037-0.266-0.037C65.394,48.662,65.005,48.932,64.889,49.348 M35.121,45.534
			c-0.112,0.381,0.098,0.782,0.477,0.893c0.381,0.11,0.777-0.111,0.887-0.489c0.111-0.377-0.102-0.771-0.485-0.885
			c-0.067-0.019-0.134-0.029-0.201-0.029C35.491,45.024,35.208,45.225,35.121,45.534 M63.784,44.573
			c-0.191,0.634,0.179,1.288,0.8,1.468c0.63,0.186,1.281-0.172,1.465-0.8c0.183-0.625-0.17-1.279-0.797-1.459
			c-0.112-0.033-0.226-0.049-0.338-0.049C64.404,43.733,63.931,44.065,63.784,44.573 M36.934,41.137
			c-0.151,0.502,0.144,1.034,0.648,1.178c0.505,0.15,1.032-0.137,1.184-0.642c0.157-0.502-0.142-1.033-0.644-1.187
			c-0.087-0.024-0.174-0.035-0.26-0.035C37.444,40.451,37.057,40.716,36.934,41.137 M61.184,40.278
			c-0.237,0.803,0.222,1.629,1.013,1.862c0.795,0.233,1.623-0.228,1.86-1.02c0.238-0.788-0.217-1.62-1.016-1.851
			c-0.14-0.042-0.282-0.061-0.421-0.061C61.978,39.208,61.382,39.63,61.184,40.278 M40.016,37.596
			c-0.184,0.629,0.169,1.28,0.797,1.465c0.624,0.183,1.281-0.18,1.466-0.801c0.181-0.623-0.178-1.277-0.802-1.465
			c-0.112-0.033-0.224-0.048-0.333-0.048C40.631,36.747,40.166,37.084,40.016,37.596 M57.525,36.941
			c-0.266,0.891,0.25,1.827,1.143,2.091c0.893,0.263,1.828-0.258,2.09-1.148c0.267-0.889-0.243-1.826-1.136-2.091
			c-0.159-0.046-0.318-0.068-0.475-0.068C58.414,35.725,57.743,36.208,57.525,36.941 M43.91,35.206
			c-0.231,0.795,0.228,1.627,1.022,1.861c0.792,0.233,1.628-0.216,1.858-1.015c0.225-0.789-0.23-1.624-1.015-1.858
			c-0.14-0.04-0.281-0.059-0.419-0.059C44.704,34.135,44.107,34.557,43.91,35.206 M52.955,34.815
			c-0.298,1.03,0.271,2.098,1.311,2.403c1.026,0.305,2.1-0.28,2.398-1.3c0.313-1.036-0.277-2.115-1.307-2.419
			c-0.182-0.052-0.364-0.077-0.544-0.077C53.971,33.422,53.199,33.971,52.955,34.815 M48.442,34.27
			c-0.265,0.893,0.243,1.824,1.138,2.093c0.894,0.264,1.826-0.255,2.091-1.139c0.269-0.892-0.243-1.834-1.135-2.094
			c-0.162-0.048-0.324-0.071-0.484-0.071C49.323,33.058,48.661,33.537,48.442,34.27"/>
	</defs>
	<clipPath id="rtv-8">
		<use xlink:href="#rtv-4" overflow="visible"/>
	</clipPath>
	
		<linearGradient id="rtv-9" gradientUnits="userSpaceOnUse" x1="-21.7544" y1="123.0405" x2="-20.754" y2="123.0405" gradientTransform="matrix(-30.7444 -9.0295 -9.0295 30.7444 508.0198 -3924.5959)">
		<stop offset="0" style="stop-color:#F89C1C"/>
		<stop offset="0.0773" style="stop-color:#F68D1E"/>
		<stop offset="0.1994" style="stop-color:#F47C20"/>
		<stop offset="0.3333" style="stop-color:#F27221"/>
		<stop offset="0.5" style="stop-color:#F26F21"/>
		<stop offset="0.6667" style="stop-color:#F27221"/>
		<stop offset="0.8006" style="stop-color:#F47C20"/>
		<stop offset="0.9227" style="stop-color:#F68D1E"/>
		<stop offset="1" style="stop-color:#F89C1C"/>
	</linearGradient>
	<polygon clip-path="url(#rtv-8)" fill="url(#rtv-9)" points="64.268,76.099 24.868,64.528 36.713,24.202 76.112,35.773 	"/>
	<defs>
		<path id="rtv-3" d="M53.185,69.069c-0.568,0.601-0.54,1.563,0.066,2.136c0.611,0.574,1.567,0.536,2.14-0.068
			c0.571-0.6,0.55-1.561-0.061-2.135c-0.294-0.274-0.667-0.411-1.039-0.411C53.887,68.59,53.484,68.751,53.185,69.069
			 M46.504,68.972c-0.726,0.771-0.691,1.993,0.083,2.712c0.78,0.735,1.989,0.699,2.715-0.075c0.729-0.769,0.699-1.988-0.076-2.714
			c-0.371-0.351-0.845-0.523-1.318-0.523C47.394,68.372,46.882,68.575,46.504,68.972 M59.411,67.112
			c-0.464,0.493-0.441,1.27,0.051,1.731c0.497,0.466,1.272,0.442,1.732-0.051c0.464-0.488,0.442-1.262-0.053-1.729
			c-0.237-0.225-0.539-0.336-0.841-0.336C59.976,66.728,59.652,66.857,59.411,67.112 M40.202,67.032
			c-0.815,0.856-0.776,2.227,0.097,3.049c0.868,0.82,2.24,0.777,3.05-0.09c0.815-0.873,0.785-2.237-0.091-3.057
			c-0.417-0.391-0.949-0.585-1.48-0.585C41.202,66.349,40.627,66.579,40.202,67.032 M64.686,63.419
			c-0.344,0.367-0.325,0.945,0.04,1.291c0.371,0.341,0.946,0.328,1.288-0.047c0.349-0.362,0.335-0.941-0.039-1.282
			c-0.173-0.169-0.398-0.252-0.623-0.252C65.109,63.129,64.865,63.226,64.686,63.419 M34.691,63.199
			c-0.938,1.011-0.895,2.567,0.109,3.517c0.997,0.942,2.572,0.898,3.508-0.104c0.942-1.002,0.894-2.567-0.104-3.517
			c-0.482-0.453-1.095-0.676-1.705-0.676C35.839,62.418,35.179,62.68,34.691,63.199 M31.02,58.378
			c-0.818,0.862-0.789,2.229,0.083,3.053c0.875,0.815,2.245,0.772,3.057-0.092c0.818-0.866,0.777-2.241-0.089-3.055
			c-0.416-0.396-0.945-0.588-1.472-0.588C32.021,57.697,31.446,57.927,31.02,58.378 M68.061,57.928
			c-0.465,0.49-0.443,1.269,0.049,1.737c0.499,0.463,1.274,0.438,1.738-0.061c0.46-0.487,0.441-1.266-0.052-1.731
			c-0.238-0.222-0.54-0.331-0.841-0.331C68.628,57.542,68.302,57.671,68.061,57.928 M29.038,52.523
			c-0.724,0.769-0.689,1.991,0.083,2.718c0.776,0.731,1.989,0.693,2.717-0.079c0.728-0.769,0.693-1.987-0.082-2.723
			c-0.37-0.35-0.841-0.521-1.311-0.521C29.932,51.917,29.419,52.123,29.038,52.523 M69.632,51.6
			c-0.569,0.608-0.536,1.564,0.069,2.135c0.614,0.577,1.563,0.544,2.138-0.064c0.572-0.605,0.55-1.561-0.067-2.136
			c-0.29-0.273-0.662-0.408-1.034-0.409C70.334,51.125,69.931,51.285,69.632,51.6 M29.147,46.427
			c-0.563,0.612-0.547,1.558,0.065,2.133c0.603,0.575,1.566,0.541,2.14-0.059c0.573-0.606,0.539-1.571-0.063-2.14
			c-0.295-0.278-0.669-0.415-1.041-0.415C29.844,45.946,29.443,46.108,29.147,46.427 M69.149,44.935
			c-0.73,0.773-0.693,1.989,0.083,2.716c0.771,0.733,1.99,0.689,2.714-0.083c0.732-0.767,0.693-1.986-0.082-2.714
			c-0.372-0.349-0.846-0.522-1.318-0.522C70.035,44.333,69.526,44.534,69.149,44.935 M31.144,40.487
			c-0.47,0.49-0.442,1.262,0.055,1.731c0.487,0.46,1.261,0.44,1.729-0.048c0.456-0.492,0.439-1.266-0.055-1.728
			c-0.236-0.226-0.537-0.336-0.838-0.336C31.71,40.106,31.385,40.235,31.144,40.487 M66.824,38.761
			c-0.819,0.866-0.782,2.235,0.091,3.055c0.872,0.821,2.24,0.771,3.053-0.093c0.823-0.871,0.782-2.231-0.093-3.058
			c-0.412-0.391-0.941-0.585-1.471-0.585C67.828,38.08,67.251,38.309,66.824,38.761 M34.97,35.428
			c-0.349,0.369-0.332,0.945,0.036,1.291c0.373,0.35,0.947,0.33,1.29-0.038c0.347-0.368,0.332-0.944-0.034-1.29
			c-0.18-0.165-0.407-0.247-0.632-0.247C35.387,35.145,35.147,35.239,34.97,35.428 M62.683,33.487
			c-0.945,0.996-0.907,2.565,0.098,3.51c0.999,0.947,2.574,0.896,3.512-0.094c0.943-1.011,0.896-2.581-0.101-3.525
			c-0.481-0.451-1.092-0.675-1.701-0.675C63.829,32.703,63.17,32.967,62.683,33.487 M39.791,31.305
			c-0.462,0.493-0.439,1.261,0.051,1.731c0.496,0.46,1.269,0.44,1.734-0.054c0.463-0.488,0.437-1.265-0.051-1.728
			c-0.238-0.222-0.541-0.333-0.843-0.333C40.355,30.921,40.032,31.05,39.791,31.305 M57.641,30.107
			c-0.818,0.867-0.783,2.23,0.086,3.054c0.868,0.819,2.245,0.776,3.058-0.088c0.815-0.867,0.78-2.239-0.089-3.054
			c-0.422-0.397-0.955-0.592-1.485-0.592C58.637,29.427,58.066,29.656,57.641,30.107 M45.598,28.958
			c-0.573,0.611-0.546,1.564,0.065,2.141c0.603,0.569,1.564,0.539,2.138-0.068c0.569-0.605,0.541-1.568-0.067-2.138
			c-0.293-0.274-0.664-0.409-1.034-0.409C46.297,28.484,45.895,28.645,45.598,28.958 M51.68,28.485
			c-0.724,0.773-0.69,1.99,0.085,2.716c0.772,0.73,1.99,0.693,2.712-0.078c0.728-0.777,0.688-1.987-0.083-2.717
			c-0.37-0.349-0.842-0.521-1.313-0.521C52.57,27.885,52.059,28.087,51.68,28.485"/>
	</defs>
	<clipPath id="rtv-10">
		<use xlink:href="#rtv-3" overflow="visible"/>
	</clipPath>
	
		<linearGradient id="SVGID_11_" gradientUnits="userSpaceOnUse" x1="-21.7734" y1="123.0679" x2="-20.7731" y2="123.0679" gradientTransform="matrix(-30.1396 -30.1396 -30.1396 30.1396 3118.5137 -4300.3081)">
		<stop offset="0" style="stop-color:#F89C1C"/>
		<stop offset="0.0773" style="stop-color:#F68D1E"/>
		<stop offset="0.1994" style="stop-color:#F47C20"/>
		<stop offset="0.3333" style="stop-color:#F27221"/>
		<stop offset="0.5" style="stop-color:#F26F21"/>
		<stop offset="0.6667" style="stop-color:#F27221"/>
		<stop offset="0.8006" style="stop-color:#F47C20"/>
		<stop offset="0.9227" style="stop-color:#F68D1E"/>
		<stop offset="1" style="stop-color:#F89C1C"/>
	</linearGradient>
	<polygon clip-path="url(#rtv-10)" fill="url(#SVGID_11_)" points="50.496,94.6 6.046,50.152 50.496,5.704 94.947,50.152 	"/>
	<defs>
		<path id="rtv-2" d="M54.197,75.381c-0.705,0.107-1.198,0.765-1.093,1.475c0.103,0.712,0.766,1.199,1.472,1.097
			c0.71-0.107,1.204-0.762,1.099-1.474c-0.092-0.647-0.65-1.11-1.29-1.11C54.324,75.369,54.261,75.373,54.197,75.381 M47.039,75.146
			c-0.899,0.182-1.483,1.061-1.303,1.957c0.18,0.903,1.057,1.485,1.957,1.307c0.897-0.183,1.483-1.058,1.301-1.961
			c-0.158-0.788-0.853-1.334-1.629-1.334C47.257,75.115,47.148,75.125,47.039,75.146 M60.667,73.644
			c-0.613,0.263-0.897,0.974-0.632,1.584c0.267,0.619,0.976,0.897,1.588,0.636c0.614-0.265,0.899-0.976,0.635-1.591
			c-0.198-0.456-0.644-0.729-1.111-0.729C60.986,73.543,60.823,73.576,60.667,73.644 M40.06,73.102
			c-1.075,0.275-1.724,1.367-1.451,2.445c0.275,1.083,1.37,1.728,2.446,1.454c1.078-0.277,1.73-1.366,1.455-2.448
			c-0.231-0.909-1.051-1.514-1.95-1.514C40.395,73.04,40.227,73.059,40.06,73.102 M66.367,70.135
			c-0.557,0.448-0.656,1.262-0.211,1.822c0.445,0.566,1.262,0.654,1.823,0.213c0.564-0.445,0.66-1.258,0.216-1.824
			c-0.256-0.323-0.634-0.491-1.018-0.491C66.894,69.855,66.608,69.948,66.367,70.135 M33.675,69.233
			c-1.323,0.411-2.059,1.817-1.645,3.142c0.414,1.332,1.817,2.061,3.139,1.646c1.323-0.411,2.066-1.812,1.652-3.139
			c-0.336-1.075-1.33-1.763-2.398-1.763C34.176,69.119,33.924,69.156,33.675,69.233 M71.113,64.764
			c-0.751,0.531-0.926,1.568-0.397,2.317c0.534,0.751,1.569,0.926,2.32,0.396c0.748-0.529,0.925-1.563,0.392-2.319
			c-0.324-0.455-0.836-0.7-1.357-0.7C71.739,64.458,71.404,64.557,71.113,64.764 M28.422,64.143
			c-1.432,0.53-2.168,2.127-1.637,3.554c0.535,1.446,2.128,2.167,3.555,1.635c1.436-0.532,2.171-2.112,1.637-3.556
			c-0.413-1.114-1.47-1.806-2.594-1.806C29.064,63.97,28.739,64.025,28.422,64.143 M74.418,58.284
			c-0.94,0.596-1.222,1.84-0.627,2.776c0.597,0.942,1.839,1.217,2.778,0.623c0.938-0.593,1.221-1.83,0.623-2.774
			c-0.384-0.605-1.037-0.936-1.704-0.936C75.122,57.973,74.75,58.074,74.418,58.284 M24.598,57.939
			c-1.525,0.657-2.237,2.422-1.575,3.957c0.657,1.527,2.435,2.229,3.957,1.573c1.524-0.659,2.227-2.432,1.568-3.959
			c-0.491-1.14-1.597-1.818-2.76-1.818C25.391,57.692,24.987,57.772,24.598,57.939 M22.635,51.471
			c-1.363,0.673-1.932,2.328-1.252,3.705c0.68,1.371,2.344,1.93,3.712,1.252c1.37-0.677,1.93-2.338,1.25-3.708
			c-0.484-0.979-1.458-1.541-2.474-1.541C23.457,51.179,23.034,51.273,22.635,51.471 M75.98,50.991
			c-1.204,0.675-1.638,2.206-0.958,3.418c0.682,1.211,2.211,1.632,3.414,0.953c1.211-0.679,1.642-2.202,0.96-3.413
			c-0.461-0.82-1.311-1.282-2.187-1.282C76.792,50.667,76.371,50.77,75.98,50.991 M22.541,44.74
			c-1.21,0.677-1.639,2.201-0.959,3.415c0.679,1.205,2.207,1.638,3.416,0.957c1.209-0.677,1.64-2.208,0.96-3.416
			c-0.461-0.82-1.311-1.28-2.186-1.28C23.354,44.417,22.931,44.521,22.541,44.74 M75.887,43.674
			c-1.365,0.675-1.927,2.337-1.25,3.703c0.683,1.381,2.338,1.93,3.708,1.253c1.367-0.674,1.933-2.328,1.251-3.705
			c-0.482-0.973-1.466-1.538-2.485-1.538C76.699,43.387,76.281,43.479,75.887,43.674 M24.413,38.414
			c-0.936,0.596-1.222,1.832-0.621,2.776c0.592,0.94,1.837,1.221,2.774,0.628c0.943-0.594,1.221-1.841,0.626-2.782
			c-0.384-0.607-1.035-0.935-1.7-0.935C25.123,38.101,24.749,38.202,24.413,38.414 M74.005,36.632
			c-1.531,0.661-2.238,2.421-1.578,3.955c0.661,1.529,2.432,2.234,3.958,1.576c1.526-0.659,2.232-2.433,1.573-3.958
			c-0.493-1.142-1.601-1.82-2.763-1.82C74.797,36.385,74.393,36.465,74.005,36.632 M27.95,32.626
			c-0.75,0.533-0.933,1.561-0.396,2.317c0.531,0.747,1.567,0.925,2.314,0.394c0.748-0.532,0.927-1.569,0.396-2.314
			c-0.325-0.461-0.836-0.704-1.354-0.704C28.577,32.319,28.242,32.419,27.95,32.626 M70.641,30.767
			c-1.433,0.53-2.171,2.114-1.636,3.555c0.531,1.435,2.124,2.167,3.553,1.636c1.433-0.528,2.168-2.124,1.637-3.559
			c-0.414-1.12-1.471-1.806-2.592-1.806C71.283,30.593,70.958,30.649,70.641,30.767 M33.001,27.93
			c-0.559,0.446-0.658,1.258-0.214,1.823c0.446,0.565,1.264,0.657,1.823,0.214c0.563-0.447,0.663-1.26,0.216-1.825
			c-0.256-0.324-0.634-0.492-1.016-0.492C33.527,27.65,33.242,27.742,33.001,27.93 M65.81,26.08c-1.32,0.411-2.065,1.814-1.65,3.142
			c0.413,1.321,1.825,2.06,3.143,1.646c1.324-0.413,2.059-1.821,1.647-3.142c-0.336-1.076-1.322-1.762-2.387-1.762
			C66.314,25.964,66.06,26.002,65.81,26.08 M39.36,24.242c-0.613,0.262-0.899,0.971-0.632,1.589
			c0.264,0.612,0.978,0.892,1.589,0.628c0.612-0.264,0.898-0.975,0.633-1.587c-0.197-0.459-0.642-0.73-1.108-0.73
			C39.681,24.142,39.517,24.174,39.36,24.242 M59.929,23.102c-1.077,0.273-1.73,1.364-1.453,2.447
			c0.274,1.076,1.374,1.73,2.449,1.451c1.075-0.274,1.726-1.373,1.452-2.447c-0.234-0.914-1.053-1.514-1.947-1.514
			C60.264,23.039,60.096,23.059,59.929,23.102 M46.404,22.152c-0.706,0.104-1.199,0.758-1.095,1.47
			c0.105,0.712,0.765,1.198,1.473,1.097c0.709-0.106,1.203-0.761,1.099-1.474c-0.094-0.645-0.65-1.107-1.285-1.107
			C46.533,22.138,46.469,22.142,46.404,22.152 M53.291,21.698c-0.902,0.18-1.487,1.047-1.304,1.954
			c0.179,0.898,1.055,1.483,1.956,1.302c0.898-0.181,1.481-1.054,1.301-1.952c-0.159-0.796-0.849-1.337-1.624-1.337
			C53.512,21.666,53.402,21.676,53.291,21.698"/>
	</defs>
	<clipPath id="rtv-12">
		<use xlink:href="#rtv-2" overflow="visible"/>
	</clipPath>
	
		<linearGradient id="rtv-13" gradientUnits="userSpaceOnUse" x1="-21.792" y1="123.0757" x2="-20.7924" y2="123.0757" gradientTransform="matrix(-22.2659 -51.6197 -51.6197 22.2659 5929.5229 -3789.4478)">
		<stop offset="0" style="stop-color:#F89C1C"/>
		<stop offset="0.0773" style="stop-color:#F68D1E"/>
		<stop offset="0.1994" style="stop-color:#F47C20"/>
		<stop offset="0.3333" style="stop-color:#F27221"/>
		<stop offset="0.5" style="stop-color:#F26F21"/>
		<stop offset="0.6667" style="stop-color:#F27221"/>
		<stop offset="0.8006" style="stop-color:#F47C20"/>
		<stop offset="0.9227" style="stop-color:#F68D1E"/>
		<stop offset="1" style="stop-color:#F89C1C"/>
	</linearGradient>
	<polygon clip-path="url(#rtv-12)" fill="url(#rtv-13)" points="30.048,100.253 0,30.595 70.932,0 100.98,69.659 	"/>
	<defs>
		<path id="rtv-1" d="M48.941,84.504c0,0.856,0.696,1.546,1.548,1.546c0.857,0,1.552-0.689,1.552-1.548
			c0-0.854-0.695-1.546-1.552-1.546C49.637,82.957,48.941,83.648,48.941,84.504 M39.965,82.901
			c-0.236,0.889,0.293,1.796,1.178,2.033c0.889,0.236,1.802-0.285,2.039-1.175c0.237-0.887-0.291-1.798-1.18-2.036
			c-0.143-0.039-0.287-0.057-0.429-0.057C40.84,81.667,40.165,82.157,39.965,82.901 M58.977,81.723
			c-0.885,0.238-1.414,1.149-1.177,2.038c0.239,0.888,1.154,1.409,2.037,1.173c0.89-0.237,1.418-1.145,1.18-2.037
			c-0.198-0.74-0.873-1.23-1.608-1.23C59.266,81.667,59.121,81.684,58.977,81.723 M31.178,79.452
			c-0.247,1.156,0.49,2.282,1.638,2.527c1.149,0.244,2.279-0.487,2.525-1.643c0.244-1.147-0.49-2.279-1.64-2.524
			c-0.148-0.03-0.296-0.046-0.442-0.046C32.275,77.766,31.389,78.454,31.178,79.452 M67.28,77.812
			c-1.151,0.245-1.886,1.377-1.641,2.524c0.246,1.155,1.375,1.887,2.526,1.641c1.148-0.243,1.883-1.369,1.638-2.527
			c-0.213-0.996-1.097-1.684-2.081-1.684C67.576,77.766,67.428,77.782,67.28,77.812 M23.585,74.008
			c-0.225,1.415,0.735,2.728,2.139,2.95c1.409,0.222,2.729-0.729,2.953-2.143c0.223-1.404-0.738-2.726-2.147-2.946
			c-0.136-0.022-0.271-0.032-0.406-0.032C24.88,71.837,23.785,72.741,23.585,74.008 M74.454,71.867
			c-1.408,0.223-2.371,1.543-2.146,2.949c0.222,1.414,1.545,2.364,2.952,2.143c1.401-0.224,2.365-1.535,2.14-2.95
			c-0.2-1.27-1.3-2.173-2.544-2.173C74.723,71.835,74.589,71.845,74.454,71.867 M79.992,64.081
			c-1.761,0.185-3.046,1.768-2.862,3.533c0.187,1.772,1.773,3.043,3.534,2.858c1.767-0.186,3.045-1.758,2.86-3.532
			c-0.174-1.65-1.568-2.878-3.193-2.878C80.219,64.062,80.105,64.068,79.992,64.081 M17.457,66.941
			c-0.186,1.774,1.091,3.345,2.859,3.531c1.764,0.185,3.346-1.086,3.532-2.858c0.187-1.766-1.098-3.349-2.862-3.533
			c-0.114-0.013-0.228-0.019-0.341-0.019C19.021,64.062,17.63,65.292,17.457,66.941 M13.659,58.783
			c-0.102,1.967,1.406,3.62,3.353,3.722c1.96,0.103,3.627-1.384,3.73-3.352c0.102-1.951-1.399-3.619-3.352-3.723
			c-0.063-0.003-0.125-0.005-0.187-0.005C15.33,55.425,13.758,56.894,13.659,58.783 M83.591,55.43
			c-1.949,0.104-3.452,1.771-3.349,3.723c0.102,1.968,1.77,3.453,3.725,3.352c1.948-0.103,3.454-1.755,3.351-3.722
			c-0.098-1.889-1.667-3.357-3.54-3.357C83.716,55.425,83.653,55.427,83.591,55.43 M12.177,50.05c0,2.128,1.735,3.856,3.86,3.856
			c2.123,0,3.85-1.729,3.85-3.861c0-2.138-1.727-3.85-3.85-3.85C13.912,46.195,12.177,47.907,12.177,50.05 M81.091,50.045
			c0,2.133,1.724,3.861,3.85,3.861c2.133,0,3.86-1.729,3.86-3.856c0-2.143-1.727-3.855-3.853-3.855
			C82.815,46.195,81.091,47.907,81.091,50.045 M17.011,37.592c-1.945,0.102-3.456,1.757-3.353,3.722
			c0.103,1.955,1.777,3.457,3.73,3.355c1.953-0.103,3.454-1.77,3.353-3.725c-0.1-1.902-1.662-3.357-3.539-3.357
			C17.14,37.587,17.076,37.589,17.011,37.592 M80.243,40.944c-0.103,1.955,1.4,3.622,3.349,3.725c1.955,0.102,3.628-1.4,3.728-3.355
			c0.104-1.965-1.404-3.62-3.352-3.722c-0.064-0.003-0.128-0.005-0.192-0.005C81.906,37.587,80.342,39.042,80.243,40.944
			 M77.13,32.487c-0.184,1.764,1.103,3.348,2.862,3.533c1.767,0.185,3.348-1.099,3.532-2.861c0.185-1.774-1.094-3.348-2.858-3.534
			c-0.115-0.012-0.228-0.018-0.341-0.018C78.704,29.607,77.305,30.829,77.13,32.487 M20.316,29.625
			c-1.769,0.186-3.048,1.76-2.859,3.534c0.184,1.762,1.762,3.046,3.529,2.86c1.764-0.185,3.049-1.768,2.862-3.532
			c-0.174-1.657-1.57-2.88-3.19-2.88C20.545,29.607,20.431,29.613,20.316,29.625 M72.308,25.284
			c-0.223,1.406,0.737,2.73,2.145,2.953c1.402,0.222,2.727-0.741,2.948-2.147c0.225-1.414-0.74-2.725-2.14-2.948
			c-0.137-0.022-0.274-0.032-0.408-0.032C73.605,23.11,72.51,24.007,72.308,25.284 M25.723,23.141
			c-1.404,0.222-2.364,1.533-2.141,2.947c0.223,1.406,1.543,2.369,2.948,2.147c1.409-0.223,2.368-1.546,2.146-2.954
			c-0.201-1.274-1.295-2.173-2.541-2.173C25.999,23.108,25.861,23.119,25.723,23.141 M65.64,19.76
			c-0.244,1.152,0.489,2.281,1.64,2.525c1.148,0.245,2.279-0.488,2.523-1.635c0.247-1.158-0.49-2.28-1.638-2.523
			c-0.151-0.032-0.302-0.048-0.45-0.048C66.732,18.079,65.853,18.758,65.64,19.76 M32.817,18.126
			c-1.149,0.244-1.886,1.366-1.641,2.524c0.245,1.147,1.376,1.88,2.525,1.635c1.15-0.244,1.884-1.373,1.639-2.525
			c-0.213-1.002-1.093-1.681-2.074-1.681C33.118,18.079,32.967,18.094,32.817,18.126 M57.802,16.34
			c-0.239,0.89,0.291,1.799,1.176,2.036c0.888,0.239,1.803-0.286,2.041-1.174c0.237-0.889-0.294-1.798-1.182-2.035
			c-0.145-0.039-0.29-0.057-0.432-0.057C58.672,15.11,58.001,15.595,57.802,16.34 M41.143,15.167
			c-0.886,0.237-1.416,1.144-1.178,2.032c0.238,0.891,1.154,1.415,2.037,1.177c0.889-0.237,1.417-1.147,1.18-2.038
			c-0.2-0.743-0.87-1.229-1.603-1.229C41.435,15.109,41.289,15.128,41.143,15.167 M48.941,15.596c0,0.857,0.696,1.549,1.548,1.549
			c0.857,0,1.552-0.692,1.552-1.549c0-0.858-0.695-1.546-1.552-1.546C49.637,14.05,48.941,14.738,48.941,15.596"/>
	</defs>
	<clipPath id="rtv-14">
		<use xlink:href="#rtv-1" overflow="visible"/>
	</clipPath>
	
		<linearGradient id="rtv-15" gradientUnits="userSpaceOnUse" x1="-21.8086" y1="123.0776" x2="-20.8086" y2="123.0776" gradientTransform="matrix(0 -72 -72 0 8912.1113 -1484.188)">
		<stop offset="0" style="stop-color:#F89C1C"/>
		<stop offset="0.0773" style="stop-color:#F68D1E"/>
		<stop offset="0.1994" style="stop-color:#F47C20"/>
		<stop offset="0.3333" style="stop-color:#F27221"/>
		<stop offset="0.5" style="stop-color:#F26F21"/>
		<stop offset="0.6667" style="stop-color:#F27221"/>
		<stop offset="0.8006" style="stop-color:#F47C20"/>
		<stop offset="0.9227" style="stop-color:#F68D1E"/>
		<stop offset="1" style="stop-color:#F89C1C"/>
	</linearGradient>
	<rect x="12.177" y="14.05" clip-path="url(#rtv-14)" fill="url(#rtv-15)" width="76.624" height="72"/>
<path fill="#85878A" d="M126.304,62.042h-4.125c-0.37,0-0.507-0.342-0.674-0.674l-4.869-8.193h-0.747
	c-0.881,0-3.613-0.096-4.389-0.139v8.332c0,0.369-0.274,0.674-0.646,0.674h-3.378c-0.369,0-0.674-0.305-0.674-0.674V39.226
	c0-0.678,0.401-0.914,1.081-1.014c1.759-0.271,5.538-0.438,8.006-0.438c5.204,0,10.009,1.86,10.009,7.636v0.305
	c0,3.578-1.79,5.536-4.559,6.611l5.3,9.043c0.071,0.102,0.071,0.197,0.071,0.273C126.709,61.871,126.574,62.042,126.304,62.042
	 M121.235,45.41c0-2.534-1.967-3.614-5.346-3.614c-0.712,0-3.786,0.067-4.389,0.133v7.328c0.535,0.033,3.808,0.101,4.389,0.101
	c3.476,0,5.346-0.672,5.346-3.643V45.41z M135.718,55.386c0,2.834,0.109,2.908,2.663,2.908h8.552c0.373,0,0.678,0.305,0.678,0.676
	v2.158c0,0.477-0.17,0.646-0.678,0.711c-1.08,0.17-3.281,0.471-7.298,0.471c-5.608,0-8.583,0.039-8.583-6.924V44.695
	c0-6.961,2.975-6.922,8.583-6.922c4.017,0,6.218,0.305,7.298,0.472c0.508,0.066,0.678,0.237,0.678,0.711v2.159
	c0,0.369-0.305,0.68-0.678,0.68h-8.552c-2.554,0-2.663,0.075-2.663,2.9v3.1h10.813c0.371,0,0.676,0.307,0.676,0.672v2.439
	c0,0.367-0.305,0.675-0.676,0.675h-10.813V55.386z M162.783,62.31c-5.434,0-10.118-2.363-10.118-9.564V38.687
	c0-0.375,0.308-0.644,0.68-0.644h3.337c0.375,0,0.679,0.269,0.679,0.644v14.059c0,3.854,1.781,5.682,5.422,5.682
	c3.653,0,5.433-1.828,5.433-5.682V38.687c0-0.375,0.303-0.644,0.673-0.644h3.346c0.375,0,0.68,0.269,0.68,0.644v14.059
	C172.914,59.947,168.227,62.31,162.783,62.31 M195.131,41.959h-6.742v19.409c0,0.369-0.312,0.674-0.683,0.674h-3.344
	c-0.371,0-0.678-0.305-0.678-0.674V41.959h-6.744c-0.367,0-0.672-0.232-0.672-0.604v-2.669c0-0.375,0.305-0.644,0.672-0.644h18.19
	c0.365,0,0.67,0.269,0.67,0.644v2.669C195.801,41.728,195.497,41.959,195.131,41.959 M241.016,62.042h-4.125
	c-0.371,0-0.504-0.342-0.672-0.674l-4.87-8.193h-0.753c-0.873,0-3.608-0.096-4.39-0.139v8.332c0,0.369-0.268,0.674-0.637,0.674
	h-3.375c-0.373,0-0.679-0.305-0.679-0.674V39.226c0-0.678,0.401-0.914,1.079-1.014c1.755-0.271,5.54-0.438,8.001-0.438
	c5.207,0,10.01,1.86,10.01,7.636v0.305c0,3.578-1.793,5.536-4.563,6.611l5.311,9.043c0.068,0.102,0.068,0.197,0.068,0.273
	C241.422,61.871,241.284,62.042,241.016,62.042 M235.948,45.41c0-2.534-1.967-3.614-5.352-3.614c-0.705,0-3.78,0.067-4.39,0.133
	v7.328c0.547,0.033,3.825,0.101,4.39,0.101c3.486,0,5.352-0.672,5.352-3.643V45.41z M253.912,62.326
	c-2.986,0-6.012-0.512-7.638-0.885c-0.334-0.068-0.641-0.303-0.641-0.674v-2.434c0-0.369,0.307-0.643,0.641-0.643h0.066
	c1.356,0.17,4.519,0.609,7.642,0.609c3.004,0,3.924-1.076,3.924-3.033c0-2.535-6.049-3.938-9.002-5.154
	c-2.94-1.215-3.981-3.544-3.981-5.906c0-3.719,2.993-6.422,9.276-6.422c3.221,0,6.17,0.613,7.318,0.888
	c0.34,0.068,0.605,0.305,0.605,0.641v2.5c0,0.334-0.23,0.607-0.574,0.607h-0.064c-2.232-0.201-4.545-0.612-7.482-0.612
	c-2.504,0-4.377,0.878-4.377,2.398c0,1.112,1.269,2.133,2.769,2.729c1.5,0.591,3.468,1.357,5.716,2.26
	c2.846,1.152,4.691,2.829,4.691,6.072C262.8,58.675,260.673,62.326,253.912,62.326 M203.942,55.386c0,2.834,0.105,2.908,2.666,2.908
	h8.56c0.363,0,0.67,0.305,0.67,0.676v2.158c0,0.477-0.17,0.646-0.67,0.711c-1.088,0.17-3.285,0.471-7.304,0.471
	c-5.619,0-8.588,0.039-8.588-6.924V44.695c0-6.961,2.969-6.922,8.588-6.922c4.019,0,6.216,0.305,7.304,0.472
	c0.5,0.066,0.67,0.237,0.67,0.711v2.159c0,0.369-0.307,0.68-0.67,0.68h-8.56c-2.561,0-2.666,0.075-2.666,2.9v3.1h10.815
	c0.375,0,0.67,0.307,0.67,0.672v2.439c0,0.367-0.295,0.675-0.67,0.675h-10.815V55.386z M282.891,39.809v22.234h-2.09V39.809h-7.532
	v-1.766h17.119v1.766H282.891z M293.041,38.042h2.091l7.495,21.873l7.46-21.873h2.091l-8.396,24h-2.345L293.041,38.042z"/>
</svg>
