<?xml version="1.0" encoding="UTF-8" standalone="no"?>
<svg width="60px" height="60px" viewBox="0 0 60 60" version="1.1" xmlns="http://www.w3.org/2000/svg" xmlns:xlink="http://www.w3.org/1999/xlink" xmlns:sketch="http://www.bohemiancoding.com/sketch/ns">
    <!-- Generator: Sketch 3.4.1 (15681) - http://www.bohemiancoding.com/sketch -->
    <title>fast-forward</title>
    <desc>Created with Sketch.</desc>
    <defs></defs>
    <g id="Page-1" stroke="none" stroke-width="1" fill="none" fill-rule="evenodd" sketch:type="MSPage">
        <g id="fast-forward" sketch:type="MSArtboardGroup" fill="#030104">
            <path d="M41.266,27.81 L4.887,4.962 C2.199,3.198 0,4.497 0,7.844 L0,52.197 C0,55.545 2.199,56.842 4.887,55.08 L41.266,32.232 C41.266,32.232 42.577,31.31 42.577,30.021 C42.577,28.732 41.266,27.81 41.266,27.81 L41.266,27.81 Z M52.5,1 C48.061,1 45,2.365 45,6.804 L45,53.237 C45,57.675 48.061,59.041 52.5,59.041 C56.939,59.041 60,57.676 60,53.237 L60,6.804 C60,2.365 56.939,1 52.5,1 L52.5,1 Z" id="Shape" sketch:type="MSShapeGroup"></path>
        </g>
    </g>
</svg>