<?xml version="1.0" encoding="UTF-8" standalone="no"?>
<svg width="60px" height="60px" viewBox="0 0 60 60" version="1.1" xmlns="http://www.w3.org/2000/svg" xmlns:xlink="http://www.w3.org/1999/xlink" xmlns:sketch="http://www.bohemiancoding.com/sketch/ns">
    <!-- Generator: Sketch 3.4.1 (15681) - http://www.bohemiancoding.com/sketch -->
    <title>fast-rewind</title>
    <desc>Created with Sketch.</desc>
    <defs></defs>
    <g id="Page-1" stroke="none" stroke-width="1" fill="none" fill-rule="evenodd" sketch:type="MSPage">
        <g id="fast-rewind" sketch:type="MSArtboardGroup" fill="#030104">
            <path d="M7.5,1 C11.939,1 15,2.365 15,6.804 L15,53.237 C15,57.675 11.939,59.041 7.5,59.041 C3.061,59.041 0,57.676 0,53.237 L0,6.804 C0,2.365 3.061,1 7.5,1 Z M18.734,27.81 L55.113,4.962 C57.801,3.198 60,4.497 60,7.844 L60,52.197 C60,55.545 57.801,56.842 55.113,55.08 L18.734,32.232 C18.734,32.232 17.423,31.31 17.423,30.021 C17.423,28.732 18.734,27.81 18.734,27.81 Z" id="Path" sketch:type="MSShapeGroup"></path>
        </g>
    </g>
</svg>