<?xml version="1.0" encoding="UTF-8" standalone="no"?>
<svg width="30px" height="30px" viewBox="0 0 30 30" version="1.1" xmlns="http://www.w3.org/2000/svg" xmlns:xlink="http://www.w3.org/1999/xlink" xmlns:sketch="http://www.bohemiancoding.com/sketch/ns">
    <!-- Generator: Sketch 3.4.2 (15857) - http://www.bohemiancoding.com/sketch -->
    <title>statue</title>
    <desc>Created with Sketch.</desc>
    <defs></defs>
    <g id="Page-1" stroke="none" stroke-width="1" fill="none" fill-rule="evenodd" sketch:type="MSPage">
        <g id="statue" sketch:type="MSArtboardGroup" fill="#000000">
            <path d="M28.7352807,28.8422313 C28.4632784,27.9208822 27.1001042,26.3101026 24.9124889,24.7868196 C22.7322535,23.2645907 21.4344441,22.5593476 20.8809511,21.7655537 C20.3274581,20.9717598 20.5288241,19.4653436 20.6089488,18.6399245 C20.6890735,17.8229387 21.0011381,16.6770504 21.1613876,15.9475612 C21.3300711,15.218072 21.8108194,14.6414382 22.2356912,14.2324183 C22.6679429,13.8233983 23.01269,13.2067059 23.0770006,11.635985 C23.1413112,10.065264 22.8925029,9.76060743 22.6363147,9.39270031 C22.3875064,9.02373902 22.3000018,8.88775043 22.204063,8.24681196 C22.1081242,7.59744009 22.1397524,7.19685354 22.0680618,5.321476 C21.9963713,3.44609847 21.7718113,2.94958198 21.2741947,1.65927164 C20.7776324,0.377394693 19.2942711,0 18.5257065,0 C17.7571419,0 13.0919863,0.00843340096 12.1547381,0.00843340096 C11.2174899,0.00843340096 10.455251,0.858098547 10.552244,1.31455637 C10.6492371,1.7710142 10.9844957,2.57324147 12.5237335,2.8768439 C14.0629712,3.18044634 17.4282089,3.10876243 17.4282089,3.10876243 C17.9648335,3.10032903 17.9648335,3.46929032 17.6601488,3.60527891 C17.3554641,3.7412675 16.5225888,3.73388827 15.5125958,3.73388827 C14.5026028,3.74232167 13.2606699,3.74232167 12.2106146,3.70964225 C11.1605592,3.67696282 10.6713768,4.65523733 10.7599357,5.34466786 C10.8484946,6.04147761 10.7599357,6.72352891 10.6313145,7.82935861 C10.5026932,8.93518831 11.1921874,8.8466376 11.9133097,8.92675491 C12.8104956,9.02268485 13.6043627,9.35896671 14.0692969,9.59193941 C14.534231,9.82491211 14.9664827,10.1211353 15.0392275,10.5617805 C15.0792899,10.8263785 14.9833511,11.9807002 14.9106063,12.9178619 C14.8462957,13.8550236 14.8947922,14.6403841 14.7102945,15.1379547 C14.5257968,15.6355254 14.1494216,15.6829633 13.8847992,15.6112793 C13.3956168,15.4668574 13.8447368,14.7942936 14.0366144,14.2250391 C14.1483673,13.8961364 14.2527403,13.2077601 14.3486791,12.2937902 C14.4446179,11.3798204 14.2126779,10.6271394 13.6275567,10.1380021 C13.0424355,9.64886487 11.7045638,9.54450153 11.0066354,9.62567302 C10.3087071,9.7068445 9.85220712,9.77747423 9.7077718,10.7715614 C9.56333648,11.7656485 10.1083953,13.8002065 10.397266,14.5296957 C10.6861366,15.2591849 10.9823872,16.0118659 10.8295177,16.0919832 C10.7409588,16.1404753 10.2443965,15.4668574 10.0925812,15.1147629 C9.96396,14.8185397 9.90070366,14.7226097 9.74783415,14.2408517 C9.59496465,13.7590937 9.1953954,12.5257088 9.13846468,11.9575084 C9.07415407,11.3882538 9.02671181,10.4268461 9.07415407,10.1380021 C9.12159633,9.84915814 9.36302471,9.28095775 9.61077874,8.96786774 C9.86696694,8.65477773 9.83533876,7.87785067 9.87540112,7.27697085 C9.91546347,6.67609103 9.95552582,5.61031999 9.94709164,4.73640881 C9.93865746,3.86249764 9.7383457,3.00545327 9.49059168,3.00545327 C9.25021756,3.00545327 9.03409171,2.94114858 9.01827763,3.70226302 C9.00246354,4.46337746 9.00246354,4.79965932 8.9465871,6.25020428 C8.89071066,7.69231585 9.01827763,8.33430849 8.55439775,9.15129421 C8.09051788,9.96827993 8.05783544,10.2012526 8.08946361,12.0681968 C8.12109178,13.9351409 8.99508363,14.1997389 9.49164595,15.0894627 C9.98820827,15.9791865 10.4932048,17.0850162 10.5659496,19.2408043 C10.6376401,21.3965924 10.3171413,21.7655537 9.73202007,22.3822461 C9.14689886,22.9989386 7.14378123,24.1216351 5.31567283,25.5395006 C3.4886187,26.9584203 1.58881976,29.6908422 2.07800218,29.7867722 C2.56718459,29.8827021 2.75168226,29.3303143 5.98091874,27.2303975 C9.21858939,25.1304807 12.3202589,25.3392073 13.1773824,25.25909 C14.0345059,25.1789727 14.4836259,25.547934 13.7709378,25.8684033 C13.0571953,26.1888725 12.5290048,26.4049784 11.4062047,27.0627837 C10.2834046,27.7205889 9.53908821,28.617692 8.95396701,29.2101384 C8.36884581,29.8110182 8.70515871,30.0355575 9.26603165,29.9954988 C9.83533876,29.9554402 23.9003873,29.9870654 24.4770744,29.9870654 C25.0537614,29.9870654 24.9662568,29.6423502 24.8460697,29.3777522 C24.7258827,29.1131543 24.1650097,28.3277938 23.8687592,27.9830785 C23.5798885,27.6467967 23.2035133,27.2862688 23.283638,27.149226 C23.3637627,27.0121833 23.6600132,27.0448627 24.1491956,27.2209099 C24.638378,27.3969572 26.3051828,28.0621417 27.0347393,28.5270329 C27.7642958,29.0003575 28.4211076,29.8574019 28.701544,29.7688512 C29.0062288,29.7045465 29.0062288,29.7688512 28.7331722,28.8390687 L28.7352807,28.8422313 Z M20.1123865,3.5588952 C20.1123865,3.5588952 20.28845,3.03813269 20.5615065,3.26267199 C20.8335088,3.49459052 20.6732594,3.73494245 20.5615065,4.12814977 C20.4497537,4.52135709 20.5056301,4.76908824 20.5372583,5.75474198 C20.5688864,6.74039571 20.4655677,6.5885945 20.3126982,6.3640552 C20.1598287,6.1395159 20.0881382,4.78490087 20.0638899,4.448619 C20.0238276,3.88779784 20.1123865,3.5588952 20.1123865,3.5588952 L20.1123865,3.5588952 Z M16.5858452,9.98514673 C16.8104052,9.83334551 17.483031,9.38426691 18.6775217,9.11123556 C19.8720124,8.8382042 20.841943,9.32734146 20.841943,9.32734146 C20.9536959,9.37583351 21.0823171,9.49600948 20.9378818,9.59193941 C20.7934465,9.68786935 20.408637,9.55188076 19.6158242,9.59193941 C18.8303912,9.62356467 18.0934548,9.72054878 17.3154017,10.3214286 C16.4899064,10.9623671 16.8747158,13.1424012 16.9548405,13.7917731 C17.0433994,14.441145 17.5399617,15.362494 17.1150899,15.4984826 C16.8104052,15.5944125 16.5784653,15.5385413 16.3380912,15.314002 C16.097717,15.0894627 16.2263383,13.9520077 16.2421524,13.5271751 C16.2579664,13.110776 16.1778417,11.5716803 16.1704618,11.0509178 C16.1620277,10.5544013 16.3623394,10.1453813 16.5868994,9.98514673 L16.5858452,9.98514673 Z M14.4214239,17.1092622 C14.8705439,16.9405942 15.4872933,16.9490276 15.4872933,16.9490276 C16.1767875,16.9648402 16.2969745,17.0207115 16.681784,17.0934496 C17.0665934,17.1661876 17.2985333,17.5340948 16.1767875,17.5182821 C15.0466074,17.5024695 14.8705439,17.5499074 14.5742934,17.5182821 C14.1578558,17.4697901 13.6528593,17.3896728 14.4224781,17.1092622 L14.4214239,17.1092622 Z M15.4556651,18.9129558 C14.9991652,18.8971432 14.6944804,18.7042291 14.7345428,18.5197485 C14.7746051,18.3352679 15.1436005,18.3679473 15.5284099,18.3753265 C15.9205993,18.3837599 16.20209,18.3753265 16.2822147,18.5271277 C16.3539052,18.6873623 15.9132194,18.9277143 15.4567194,18.9119016 L15.4556651,18.9129558 Z M16.6332874,21.2690372 C16.6491015,21.0771773 18.0681522,20.9085093 18.8535852,18.8971432 C19.2383946,17.9030561 19.5747075,17.0860703 19.7349569,16.6296125 C19.8952064,16.1731547 20.7365158,13.7770146 21.0169522,12.7913609 C21.3058229,11.7972738 21.4492039,10.9159834 21.4492039,10.5797015 C21.4492039,10.2349862 21.4808321,9.36950846 21.6178875,9.35369584 C21.7549429,9.33788321 21.9700145,9.65835244 22.002697,10.203361 C22.0343251,10.7557487 21.898324,11.9026913 21.6579499,12.5910676 C21.4175758,13.279444 20.888331,14.4105739 20.2958299,16.2047799 C19.7022745,18.0316654 18.7966545,20.0672776 18.2600298,20.5964735 C17.730785,21.1330486 16.6174733,21.4535179 16.6332874,21.2700914 L16.6332874,21.2690372 Z" id="Shape" sketch:type="MSShapeGroup"></path>
        </g>
    </g>
</svg>