<?xml version="1.0" encoding="utf-8"?>
<!-- Generated by IcoMoon.io -->
<!DOCTYPE svg PUBLIC "-//W3C//DTD SVG 1.1//EN" "http://www.w3.org/Graphics/SVG/1.1/DTD/svg11.dtd">
<svg version="1.1" xmlns="http://www.w3.org/2000/svg" xmlns:xlink="http://www.w3.org/1999/xlink" width="95" height="64" viewBox="0 0 95 64">
<path fill="#444444" d="M75.485 14.571c-2.214 0.953-4.429 1.547-6.642 1.786 2.5-1.5 4.191-3.619 5.072-6.357-2.286 1.357-4.727 2.285-7.322 2.785-2.286-2.428-5.095-3.643-8.429-3.643-3.19 0-5.91 1.125-8.161 3.375s-3.375 4.97-3.375 8.16c0 0.857 0.095 1.738 0.286 2.643-4.715-0.238-9.137-1.422-13.268-3.553s-7.637-4.971-10.518-8.518c-1.048 1.785-1.572 3.726-1.572 5.821 0 1.976 0.464 3.81 1.393 5.5s2.179 3.059 3.75 4.107c-1.857-0.071-3.595-0.56-5.214-1.465v0.143c0 2.786 0.875 5.232 2.625 7.339s3.958 3.434 6.625 3.982c-1 0.262-2.012 0.393-3.036 0.393-0.667 0-1.393-0.060-2.179-0.178 0.738 2.309 2.095 4.208 4.071 5.696s4.214 2.256 6.714 2.304c-4.19 3.285-8.964 4.928-14.321 4.928-1.024 0-1.952-0.047-2.786-0.142 5.357 3.452 11.262 5.178 17.714 5.178 4.095 0 7.94-0.648 11.535-1.946 3.596-1.298 6.667-3.036 9.215-5.215s4.744-4.684 6.589-7.518c1.845-2.833 3.22-5.791 4.125-8.874s1.357-6.172 1.357-9.268c0-0.667-0.012-1.166-0.036-1.5 2.262-1.642 4.191-3.63 5.786-5.963z"></path>
</svg>
